<svg width="30" height="30" viewBox="0 0 30 30" fill="none" xmlns="http://www.w3.org/2000/svg">
<path fill-rule="evenodd" clip-rule="evenodd" d="M15 2.5C8.1 2.5 2.5 8.1 2.5 15C2.5 21.9 8.1 27.5 15 27.5C21.9 27.5 27.5 21.9 27.5 15C27.5 8.1 21.9 2.5 15 2.5ZM5 15C5 9.475 9.475 5 15 5C17.3125 5 19.4375 5.7875 21.125 7.1125L7.1125 21.125C5.7875 19.4375 5 17.3125 5 15ZM8.87502 22.8875C10.5625 24.2125 12.6875 25 15 25C20.525 25 25 20.525 25 15C25 12.6875 24.2125 10.5625 22.8875 8.87499L8.87502 22.8875Z" fill="#ED3237"/>
</svg>
