<svg width="30" height="30" viewBox="0 0 30 30" fill="none" xmlns="http://www.w3.org/2000/svg">
<path fill-rule="evenodd" clip-rule="evenodd" d="M23.75 3.75H18.525C18 2.3 16.625 1.25 15 1.25C13.375 1.25 12 2.3 11.475 3.75H6.25C4.875 3.75 3.75 4.875 3.75 6.25V26.25C3.75 27.625 4.875 28.75 6.25 28.75H23.75C25.125 28.75 26.25 27.625 26.25 26.25V6.25C26.25 4.875 25.125 3.75 23.75 3.75ZM15 3.75C15.6875 3.75 16.25 4.3125 16.25 5C16.25 5.6875 15.6875 6.25 15 6.25C14.3125 6.25 13.75 5.6875 13.75 5C13.75 4.3125 14.3125 3.75 15 3.75ZM6.25 6.25V26.25H23.75V6.25H21.25V10H8.75V6.25H6.25Z" fill="#F5F5F5"/>
</svg>
