<svg width="30" height="30" viewBox="0 0 30 30" fill="none" xmlns="http://www.w3.org/2000/svg">
<path fill-rule="evenodd" clip-rule="evenodd" d="M15 7.5C10.8625 7.5 7.5 10.8625 7.5 15H11.25L6.25 20L1.25 15H5C5 9.475 9.475 5 15 5C16.9625 5 18.7875 5.575 20.325 6.55L18.5 8.375C17.4625 7.8125 16.2625 7.5 15 7.5ZM18.75 15L23.75 10L28.75 15H25C25 20.525 20.525 25 15 25C13.0375 25 11.2125 24.425 9.675 23.45L11.5 21.625C12.5375 22.1875 13.7375 22.5 15 22.5C19.1375 22.5 22.5 19.1375 22.5 15H18.75Z" fill="#00A859"/>
</svg>
